<svg class="svg-icon" style="width: 2.357421875em; height: 1em;vertical-align: middle;fill: currentColor;overflow: hidden;" viewBox="0 0 2414 1024" version="1.1" xmlns="http://www.w3.org/2000/svg"><path d="M2372.681039 308.40365c-35.392359 0-49.141723 12.237708-55.296691 24.475415-19.832103 60.982169-36.444843 115.195421-61.750896 171.493005-28.484142 63.634017-77.213126 159.430711-115.13351 159.43071-30.336308 0-36.960767-42.094206-33.653696-78.812489 2.110128-51.401468 21.13739-127.278352 33.792995-183.570776l11.195543-51.401468c5.60809-34.272805-13.176689-48.95599-48.569048-48.95599-27.808282 0-47.129621 12.242867-50.756564 24.475415-14.848281 55.080003-24.150384 100.795994-50.859748 161.422176-14.678026 33.318346-35.443951 76.150323-80.272553 117.609944 8.368281-51.52529-10.555797-112.708669-31.564206-166.560775-11.14395-31.817008-22.298218-57.190131-42.130321-93.010706-14.027963-25.352486-33.885862-49.802105-68.421787-49.802105-22.752231 0-48.445226 8.755223-58.908157 22.029937-20.363504 61.18338-78.53389 169.651157-126.731473 236.437467 0.505605-44.059875-24.269046-110.190962-48.465863-155.674787-9.45172-17.76325-29.861658-52.675799-41.253251-69.309176-16.148409-23.588027-33.591786-35.944397-58.866882-35.944397-27.813441 0-43.899939 7.346752-55.869367 22.029938-20.791721 62.705354-70.273953 168.521284-99.346248 221.145491-28.504779 51.607838-56.45236 105.171026-78.797011 105.171026-20.224205 0-20.925861-29.17032-18.722868-53.645736 4.199618-46.500194 47.356627-186.145235 58.247775-222.863517 8.430192-34.267645-24.733377-46.381532-55.724908-39.03478l-36.181722 9.79223c-23.288791-22.029938-66.141405-51.406627-120.076059-51.406627-108.292363 0-215.305236 129.744467-227.70288 277.504985-33.860066 48.857965-81.552043 103.164083-128.222492 96.993637-22.545861-2.987198-43.007391-19.811466-50.483124-49.048857 101.605994-117.491281 210.440077-298.523713 222.363071-430.69302 8.652039-95.977267-27.601913-154.204404-101.059115-154.204404-136.513384 0-236.01441 193.363006-253.679633 389.181807-6.397453 70.980769-5.633886 130.513193 7.202293 184.35498-58.980386 62.008857-139.737907 111.810962-220.634727 111.810962-83.270069 0-166.039692-80.473763-155.963704-239.868359 10.375224-164.125615 120.024466-379.394737 221.516956-379.394737 34.499811 0 49.115927 35.175671 44.730576 66.337457-4.364714 30.970894-14.961784 50.070385-30.104142 70.165609-5.056051 24.65083 13.207644 56.297583 49.012742 56.297583 50.612105 0 80.277712-56.617456 86.081853-125.023765C508.803853 73.591342 462.927927 0 363.648749 0 155.958545 0 13.052867 260.144156 0.995733 469.954806c-10.720892 186.434152 64.505928 342.666136 260.206067 342.666136 96.064974 0 192.098993-58.14459 277.633966-133.211473 29.108409 41.614397 61.823125 74.468412 127.345422 74.468412 56.106691 0 114.1223-45.019493 154.111538-93.433763 18.944715 57.716373 61.446501 93.433764 113.420644 93.433763 63.608221 0 116.511026-43.368538 158.409182-112.713828 12.640128 48.950831 35.846372 95.368477 91.039878 95.368477 63.200641 0 97.911981-48.017009 140.104213-111.28472 33.457645-50.168411 58.557328-110.789434 100.574146-194.580586l15.6686 22.649046c33.034588 58.74822 59.728475 113.601217 54.466054 155.205297-5.556497 44.065035-37.027837 59.687201-66.265227 59.687201-29.232231 0-41.273888-17.345351-62.658921-31.811849-22.468473 3.136815-35.959875 29.361212-38.740703 51.391149-5.871211 46.505353 30.924461 70.980769 96.653127 70.980769 88.480897 0 137.906378-41.892996 180.330776-95.574847 46.345417-58.639876 119.451791-171.198928 149.447589-241.183964 34.938346 63.639176 70.010832 138.504849 64.144781 185.010203-4.648472 36.707964-28.133314 66.084654-66.04854 66.084654-27.813441 0-51.360194-24.965543-70.356501-34.757773-12.640128 0-32.802422 27.411021-36.212677 54.337073-5.556497 44.059875 31.497136 70.991087 109.860771 70.991087 96.63249 0 185.206254-67.12166 250.553137-147.07434 5.798981 75.876884 34.247008 137.767079 112.001854 137.767079 53.083379 0 104.768605-38.281531 152.491538-120.27211 0 0-22.680001 98.634274-29.402486 126.999753-18.464906 77.935419-37.223888 150.123449-41.918792 201.648739-4.008726 44.049557 23.784078 61.188539 54.120385 61.188539 27.808282 0 52.216627-19.574141 56.070577-34.267646 13.759682-152.434787 41.841404-300.989828 70.924017-451.175187 8.414714-43.492359 34.551403-173.794024 34.551403-173.794023 5.40172-31.817008-5.448153-56.287265-40.835352-56.287265z m-1761.125842 127.278352c13.027071-144.407015 86.809305-323.091995 135.729181-323.091995 25.280256 0 23.09274 35.371722 20.224205 67.18873-9.054459 100.357458-85.56077 230.700397-160.116889 328.607218-0.763567-19.579301 1.96051-48.228538 4.163503-72.703953z m351.039576 225.185173c-37.920385 0-41.129429-51.396309-37.156817-95.456184 8.167071-90.565229 59.589176-195.818802 115.205739-195.818802 32.864333 0 55.657838 39.16892 66.31166 61.198857-19.888855 80.638859-90.668413 230.076129-144.355423 230.076129z" fill="#46BDED" /></svg>