<?xml version="1.0" encoding="utf-8"?>
<!-- Generator: Adobe Illustrator 23.0.3, SVG Export Plug-In . SVG Version: 6.00 Build 0)  -->
<svg version="1.1" id="Layer_1" xmlns="http://www.w3.org/2000/svg" xmlns:xlink="http://www.w3.org/1999/xlink" x="0px" y="0px"
	 viewBox="0 0 1200 1200" enable-background="new 0 0 1200 1200" xml:space="preserve">
<path fill="#865C87" d="M1149.268,527.404c-7.886-25.771-60.807-89.983-88.723-98.489c-8.12-4.881-17.473-7.529-27.686-7.529
	c-0.798,0-1.6,0.016-2.415,0.048c-25.507,1.009-40.903,17.281-55.045,36.44c2.45-3.319-19.787-22.441-22.504-24.464
	c-10.22-7.609-20.45-12.537-33.31-12.538c-14.951-0.001-29.08,6.216-39.184,16.502c3.866-3.936-24.056-17.32-26.533-17.956
	c-19.02-4.883-36.897,0.891-48.962,16.398c-11.747,15.098-10.133,34.493-19.641,49.569c-0.336,0.533-0.705,1.046-1.052,1.571
	c-19.09-22.901-43.808-52.703-71.994-64.463c-36.662-15.297-70.798,13.731-71.351,50.923c-0.099,6.68-3.069,13.935-7.729,20.529
	c-32.883-39.168-80.019-95.318-136.05-61.578c-0.062,0.038-0.124,0.075-0.189,0.116c-5.203,3.221-38.97-7.317-44.026-10.353
	c-7.469-4.485-13.426-21.719-19.547-29.596c-7.037-9.054-14.983-17.366-22.829-25.711c-17.643-18.766-39.356-40.793-65.046-47.341
	c-25.837-6.585-53.222,5.146-68.766,26.279c-17.998,24.469-25.635,53.134-33.021,80.855c-0.74,2.777-1.46,5.472-2.192,8.121
	c-36.821-40.55-88.871-39.52-128.267-3.998c-21.292,19.198-38.471,46.915-51.059,82.382c-0.04,0.112-0.078,0.225-0.116,0.337
	c-8.675,26.199-12.795,53.258-11.914,78.252c0.987,28.007,8.455,50.381,21.198,65.189c14.89,25.455,41.515,50.923,63.689,66.2
	c-0.792,1.079-1.584,2.157-2.29,3.277c-6.692,10.614-12.72,28.519-3.438,53.552c12.435,33.523,54.621,58.26,78.466,83.987
	c14.439,15.579,20.613,18.429,27.57,18.429c6.794,0,12.837-3.784,15.77-9.874c10.408-21.603,37.738-31.337,53.104-35.216
	c19.878-5.019,42.356-6.329,64.094-7.596c6.906-0.403,14.047-0.819,20.986-1.349c30.844-2.355,62.166-4.088,93.095-5.15
	c131.641-4.522,261.702,4.135,391.944,21.946c52.855,7.167,113.669,20.853,164.231-2.743c40.729-19.007,63.295-58.556,70.229-101.76
	c0.011-0.068,0.021-0.136,0.031-0.204c1.56-10.547,0.836-88.038,0.137-97.392c-1.147-17.105,0.098-34.444,4.37-51.072
	c2.293-8.927,10.326-41.478,22.013-43.041c4.907-0.603,9.295-3.346,11.987-7.493
	C1149.995,537.256,1150.714,532.132,1149.268,527.404z M237.776,700.07c3.646-0.336,7.194-0.657,10.603-0.997
	c139.068-13.867,278.796-9.026,418.07-1.883c61.803,3.891,124.976,13.277,187.578,15.669c47.996,1.834,113.044,7.662,118.134-55.01
	c0.674-8.322-0.817-24.474,3.263-32.008c-22.089,40.797-92.688,42.041-99.377-10.027c-0.741-5.785-1.065-11.915-1.004-18.364
	c-3.4,12.285-8.477,22.669-15.253,31.126c-25.732,32.118-82.67,46.904-114.303,14.13c-11.09-12.238-18.067-24.755-21.034-37.543
	c-3.237,8.978-7.504,16.787-12.812,23.414c-16.66,20.796-43.987,34.226-70.811,32.125c-14.572-1.142-29.526-6.669-40.894-15.979
	c-5.288-4.331-25.612-23.34-21.03-30.94c-1.506,2.497-2.984,4.991-4.59,7.5c-13.374,20.898-37.427,48.005-65.033,36.127
	c-11.347-4.882-20.013-14.668-26.166-25.148c-3.555-6.055-15.987-29.219-12.504-36.05c-13.175,25.842-39.307,65.412-72.566,64.341
	c-26.949-0.868-39.782-24.132-44.014-47.816c-0.954-5.336-1.498-10.859-1.756-16.516c-5.28,8.261-11.148,16.573-17.731,24.949
	c-18.897,24.039-52.3,55.045-82.982,29.809c-12.763-10.498-15.75-26.883-17.417-42.455c-0.946-8.837-1.341-18.216-1.235-28.084
	c-0.188,16.792-26.762,35.501-37.919,45.776c-20.248,18.648-44.96,33.852-73.269,34.621c-13.503,0.367-27.57-3.672-37.141-13.206
	c-18.313-18.245-18.266-51.557-16.945-75.611c3.223-58.706,48.703-170.046,125.586-151.122c17.413,4.286,29.762,17.236,28.657,35.58
	c-0.888,14.729-14.339,36.297-32.023,30.517c1.044-5.448,0.87-11.496-2.352-16.011c-8.599-12.049-23.846,1.126-30.168,8.419
	c-18.75,21.634-33.749,59.076-28.6,88.129c8.557,48.267,93.634,11.589,105.7-18.014c0.291-0.713,0.503-1.406,0.576-2.061
	c3.944-35.493,12.04-69.978,21.521-104.341c8.279-30.005,14.813-61.866,33.622-87.44c22.224-30.218,69.992-27.947,82.677,10.107
	c-0.517-1.55-16.4,18.932-17.193,20.373c-5.603,10.181-9.741,21.334-13.911,32.162c-17.584,45.654-32.124,96.82-34.079,146.002
	c-0.366,9.181-0.854,23.806,10.786,26.281c11.027,2.345,27.093-15.111,32.412-23.383c11.969-18.61,12.791-42.479,22.224-62.375
	c14.789-31.192,45.27-66.912,83.102-65.815c6.328,0.183,44.886,8.945,37.234,19.978c3.795-5.471,7.896-9.572,12.308-12.308
	c28.146-16.948,61.617-6.287,72.475,24.843c-1.628-4.667-25.042,22.477-26.583,25.176c-14.396,25.221-19.743,56.985-16.047,85.707
	c0.492,3.821,1.273,7.82,3.794,10.743c13.356,15.462,34.631-17.694,37.586-27.615c4.36-14.636,12.688-30.796,28.916-33.843
	c13.836-2.598,27.973-11.96,37.973-24.228c8.164-10.015,13.58-21.962,13.759-33.799c0.249-16.447,11.58-32.816,27.58-37.677
	c8.789-2.632,24.506,2.327,31.52,7.654c3.264,2.479,8.143,5.664,7.415,10.53c-1.511,10.101-9.442,2.244-15.315,6.492
	c-10.025,7.253,0.519,33.522,3.254,42.187c6.099,19.324,14.336,38.512,15.551,42.063c0.939,2.752,1.643,5.578,2.23,8.44
	c-1.96-9.546,19.585-20.359,26.441-22.392c13.283-3.937,19.861-8.617,29.957-19.371c8.095-8.622,15.103-18.986,18.696-30.344
	c4.53-14.318,4.043-32.855,17.991-41.859c15.119-9.76,39.464-4.352,46.791,12.759c1.369,3.196,1.517,5.476,0.452,6.849
	c-4.653,5.953-14.919-3.118-18.175,11.153c-7.184,31.515,23.961,59.31,27.026,89.821c-1.399-13.922,6.909-28.542,9.944-41.888
	c2.936-12.912,3.875-26.461,1.112-39.492c-2.006-9.46-6.219-16.54-1.067-25.607c5.016-8.827,17.365-14.416,27.01-15.227
	c38.745-3.255,40.992,37.23,32.683,64.291c-6.067,19.757-14.101,38.871-17.733,59.33c-2.436,13.722-1.913,60.452,25.285,41.205
	c21.847-15.463,19.931-50.654,20.631-74.178c0.995-33.479,11.239-88.57,54.235-90.273c0.592-0.023,1.175-0.035,1.755-0.035
	c20.078,0,32.902,13.945,38.515,32.283c-2.519-8.229-28.633,32.974-29.5,35.092c-9.972,24.351-13.287,50.663-11.522,76.824
	c4.052,48.783,8.375,106.719-20.881,149.138c-25.676,37.23-70.169,46.185-113.01,45.16c-39.758-0.951-78.923-8.404-117.99-15.208
	c-38.773-6.754-77.612-9.902-116.894-12.424c-98.008-6.292-194.842-2.09-292.755-2.09c-57.946,3.313-144.551-6.558-186.436,43.663
	c-3.233,3.876-6.034,8.12-8.273,12.768c-0.133,0.276-0.369,0.406-0.698,0.407c-11.243,0.06-22.993-19.773-27.214-28.36
	c-6.92-14.077-6.934-30.759,3.119-43.507C169.091,706.784,206.93,702.909,237.776,700.07z M811.356,510.743
	c3.999,15.038,13.037,39.251,5.596,54.422c-7.533,15.358-30.173,13.322-39.779,0.511c3.838-3.773,7.443-7.827,10.833-12.14
	c9.603-12.221,17.394-26.629,23.35-43.251V510.743z M663.206,510.727c0,17.348,24.726,67.792-10.929,65.966
	c-9.17-0.469-17.703-3.618-23.251-11.016c0.781,1.042,25.461-35.13,26.801-37.882c2.701-5.547,5.177-11.364,7.379-17.511V510.727z
	 M466.871,501.287c-0.421-0.051-0.854-0.04-1.27-0.119c0.604-3.191,0.604-6.76,0-10.713c-0.612-3.948-2.889-6.684-6.841-8.207
	c-1.486-0.347-2.939-0.512-4.367-0.512c-24.914,0-40.844,50.499-43.586,68.003c-2.284,14.596-6.42,42.898,14.256,46.139
	c19.494,3.055,31.493-24.331,36.836-38.607c2.704-7.225,9.129-55.383,13.729-56.788c-2.223,0.679-4.383,1.017-6.482,1.017
	C468.375,501.5,467.626,501.378,466.871,501.287z"/>
</svg>
